<svg width="18" height="19" viewBox="0 0 18 19" fill="none" xmlns="http://www.w3.org/2000/svg">
<path fill-rule="evenodd" clip-rule="evenodd" d="M13 0.569336H5C2.23858 0.569336 0 2.80792 0 5.56934V13.5693C0 16.3307 2.23858 18.5693 5 18.5693H13C15.7614 18.5693 18 16.3307 18 13.5693V5.56934C18 2.80792 15.7614 0.569336 13 0.569336ZM16.25 13.5693C16.2445 15.3619 14.7926 16.8138 13 16.8193H5C3.20735 16.8138 1.75549 15.3619 1.75 13.5693V5.56934C1.75549 3.77669 3.20735 2.32483 5 2.31934H13C14.7926 2.32483 16.2445 3.77669 16.25 5.56934V13.5693ZM13.75 5.81934C14.3023 5.81934 14.75 5.37162 14.75 4.81934C14.75 4.26706 14.3023 3.81934 13.75 3.81934C13.1977 3.81934 12.75 4.26706 12.75 4.81934C12.75 5.37162 13.1977 5.81934 13.75 5.81934ZM9 5.06934C6.51472 5.06934 4.5 7.08406 4.5 9.56934C4.5 12.0546 6.51472 14.0693 9 14.0693C11.4853 14.0693 13.5 12.0546 13.5 9.56934C13.5027 8.37504 13.0294 7.22891 12.1849 6.38442C11.3404 5.53993 10.1943 5.06668 9 5.06934ZM6.25 9.56934C6.25 11.0881 7.4812 12.3193 9 12.3193C10.5188 12.3193 11.75 11.0881 11.75 9.56934C11.75 8.05054 10.5188 6.81934 9 6.81934C7.4812 6.81934 6.25 8.05054 6.25 9.56934Z" fill="#21191D"/>
</svg>
