<svg width="18" height="19" viewBox="0 0 18 19" fill="none" xmlns="http://www.w3.org/2000/svg">
<path fill-rule="evenodd" clip-rule="evenodd" d="M1.5 0.569336C0.67157 0.569336 0 1.24091 0 2.06934V17.0693C0 17.8977 0.67157 18.5693 1.5 18.5693H16.5C17.3284 18.5693 18 17.8977 18 17.0693V2.06934C18 1.24091 17.3284 0.569336 16.5 0.569336H1.5ZM5.52076 4.57206C5.52639 5.52831 4.81061 6.11753 3.96123 6.11331C3.16107 6.10909 2.46357 5.47206 2.46779 4.57347C2.47201 3.72831 3.13998 3.04909 4.00764 3.06878C4.88795 3.08847 5.52639 3.73394 5.52076 4.57206ZM9.2797 7.3311H6.75971H6.7583V15.8909H9.4217V15.6912C9.4217 15.3113 9.4214 14.9313 9.4211 14.5512C9.4203 13.5374 9.4194 12.5225 9.4246 11.509C9.426 11.2629 9.4372 11.007 9.5005 10.7721C9.7381 9.89464 10.5271 9.32794 11.4074 9.46724C11.9727 9.55574 12.3467 9.88344 12.5042 10.4164C12.6013 10.7496 12.6449 11.1082 12.6491 11.4556C12.6605 12.5032 12.6589 13.5508 12.6573 14.5985C12.6567 14.9683 12.6561 15.3383 12.6561 15.7081V15.8895H15.328V15.6842C15.328 15.2322 15.3278 14.7803 15.3275 14.3284C15.327 13.1989 15.3264 12.0694 15.3294 10.9395C15.3308 10.429 15.276 9.92564 15.1508 9.43204C14.9638 8.69794 14.5771 8.09044 13.9485 7.65174C13.5027 7.33953 13.0133 7.13844 12.4663 7.11594C12.404 7.11335 12.3412 7.10996 12.2781 7.10655C11.9984 7.09143 11.7141 7.07607 11.4467 7.13C10.6817 7.28328 10.0096 7.63344 9.5019 8.25074C9.4429 8.32154 9.3852 8.39344 9.2991 8.50074L9.2797 8.52504V7.3311ZM2.68164 15.8937H5.33242V7.33667H2.68164V15.8937Z" fill="#21191D"/>
</svg>
