<svg width="21" height="15" viewBox="0 0 21 15" fill="none" xmlns="http://www.w3.org/2000/svg">
<path d="M20.5931 2.52967C20.4792 2.10707 20.2566 1.72167 19.9475 1.41184C19.6383 1.102 19.2534 0.878528 18.8311 0.763668C17.2651 0.333668 11.0001 0.326668 11.0001 0.326668C11.0001 0.326668 4.73609 0.319668 3.16909 0.730668C2.74701 0.850814 2.36291 1.07744 2.05365 1.3888C1.7444 1.70016 1.52037 2.08579 1.40309 2.50867C0.990086 4.07467 0.986085 7.32267 0.986085 7.32267C0.986085 7.32267 0.982085 10.5867 1.39209 12.1367C1.62209 12.9937 2.29709 13.6707 3.15509 13.9017C4.73709 14.3317 10.9851 14.3387 10.9851 14.3387C10.9851 14.3387 17.2501 14.3457 18.8161 13.9357C19.2386 13.821 19.6238 13.5981 19.9337 13.2888C20.2436 12.9796 20.4675 12.5949 20.5831 12.1727C20.9971 10.6077 21.0001 7.36067 21.0001 7.36067C21.0001 7.36067 21.0201 4.09567 20.5931 2.52967ZM8.99609 10.3317L9.00109 4.33167L14.2081 7.33667L8.99609 10.3317Z" fill="#21191D"/>
</svg>
